PathFileType	4	(X/Y/Z)	3_coords_data.trc
DataRate	CameraRate	NumFrames	NumMarkers	Units	OrigDataRate	OrigDataStartFrame	OrigNumFrames
30.0	30.0	6	21	m	30.0	33	64
Frame#	Time	THUMB_TIP	THUMB_IP	THUMB_MCP	THUMB_CMC	INDEX_TIP	INDEX_DIP	INDEX_PIP	INDEX_MCP	MIDDLE_TIP	MIDDLE_DIP	MIDDLE_PIP	MIDDLE_MCP	RING_TIP	RING_DIP	RING_PIP	RING_MCP	PINKY_TIP	PINKY_DIP	PINKY_PIP	PINKY_MCP	WRIST
X1	Y1	Z1	X2	Y2	Z2	X3	Y3	Z3	X4	Y4	Z4	X5	Y5	Z5	X6	Y6	Z6	X7	Y7	Z7	X8	Y8	Z8	X9	Y9	Z9	X10	Y10	Z10	X11	Y11	Z11	X12	Y12	Z12	X13	Y13	Z13	X14	Y14	Z14	X15	Y15	Z15	X16	Y16	Z16	X17	Y17	Z17	X18	Y18	Z18	X19	Y19	Z19	X20	Y20	Z20	X21	Y21	Z21
31	1.0666666666666622	0.5050881610408483	0.0007876173060392677	-0.1642541629032679	0.49559523028048746	-0.005078393569670436	-0.14416749613187319	0.48048647426680136	-0.01798363218662924	-0.12020919260348739	0.4751756119516234	-0.02803541041241342	-0.07707398081579742	0.50532810689105	-0.024478783824708472	-0.10428175236289883	0.5225115283998806	-0.02275767844758314	-0.10973774187266583	0.5311163245273828	-0.003781701397278181	-0.12380471068582632	0.49290306894988345	0.014835383942598868	-0.12119946105931068	0.5043406548852164	-0.020815986697535704	-0.08838395366642382	0.52208177036612	-0.018404834022581085	-0.09111143680501488	0.537494655892549	0.0028437385901814993	-0.10377440137376226	0.5002086537547357	0.027458087045273027	-0.10358515098322185	0.504780858346329	-0.008137547924805144	-0.07719333723103128	0.5226582476960869	-0.005816815489149918	-0.07730801503736484	0.5378955060015284	0.012592024363650589	-0.08431662071946755	0.5051517816101508	0.03631002033085423	-0.08447791015256356	0.507526235745975	-0.008440553614655122	-0.06382869847113748	0.5242392036183446	-0.005277112746218782	-0.06191314456454866	0.5343367630956354	0.013028156400669622	-0.06385438979958502	0.5061326543199987	0.03547578290467168	-0.06262322632186046	0.4622830810018609	-0.023011742144276925	-0.051989820119430985
32	1.0999999999999952	0.5050789505350736	0.0006922659911463569	-0.16429195805041452	0.49561117417721756	-0.005147313674456089	-0.144185727171239	0.48049463258232283	-0.018041560436293236	-0.1202264164412814	0.47516834430367705	-0.02803093231443754	-0.0770786111361107	0.5051831645574706	-0.02438476575342563	-0.10431652303650307	0.5223777162137844	-0.022703292617524906	-0.10974975793218	0.5310873333861187	-0.0037894694657039096	-0.12383591054717813	0.49286335248778124	0.01480592861924157	-0.12123311429200434	0.5043007196893698	-0.020686577838868958	-0.08842927618504492	0.5220581900776289	-0.01838185910558965	-0.09114230345556229	0.537530342548895	0.002816099598538624	-0.10381781506985133	0.5002287577217295	0.02740676390659813	-0.10362053539502158	0.5047708892389252	-0.007976303142301022	-0.07726379926526206	0.5226740556997664	-0.00586285458733149	-0.07736362852404688	0.5379397753456694	0.012530396980009961	-0.08435119458621632	0.5052053000124198	0.03626126129689283	-0.08449623744390256	0.5074788759369463	-0.008171348843382109	-0.06383802414220718	0.5242430269374612	-0.005275094490105103	-0.06194726980780618	0.5344343754383901	0.01298129267363135	-0.06385848995744237	0.5062159260498201	0.03541126443308279	-0.06263418118310238	0.4622830810018609	-0.023011742144276925	-0.051989820119430985
33	1.1333333333333284	0.5051865900806792	0.0004918869497154699	-0.16443020831137534	0.49573916929758954	-0.005312160205328764	-0.1443041238146514	0.4806451909155659	-0.018212062862814626	-0.12033363512479811	0.47503287099993863	-0.027947926018373592	-0.07716414550792994	0.5051179695226357	-0.0243961441241608	-0.10435405658659658	0.5222917425232262	-0.02261147959492138	-0.10981999597907643	0.5310677890309288	-0.0037540253884412733	-0.12394045140888277	0.4928031053344333	0.014750683281048615	-0.12128982267885324	0.504262359480005	-0.020609854363672575	-0.08849145338429498	0.5220160097553195	-0.018272143573709987	-0.09120125230014076	0.5375555432811157	0.002852723855336803	-0.10391629944538816	0.5002020719277135	0.027364171232882872	-0.1036816799484408	0.5047083620244082	-0.007769431152680806	-0.07736736926684262	0.5226311252807483	-0.005827534168296844	-0.07742731390153557	0.5379622574134655	0.012502024543941392	-0.08443899301169011	0.5052223801400413	0.03622567018227113	-0.08453853068339001	0.507459829591291	-0.00785252281515525	-0.06385781284525271	0.5242750068773079	-0.005220814714650079	-0.062034649299775535	0.5345068255823731	0.013014280409644974	-0.06393286182596558	0.5062453592125957	0.03538662391508912	-0.06264786544295176	0.462283081001861	-0.023011742144276925	-0.051989820119430985
34	1.1666666666666616	0.5050660842595336	0.00040229505181582637	-0.16453343099206186	0.49562788988927553	-0.005363851109576712	-0.14439212901143794	0.48057476020672496	-0.018282880324260065	-0.1204062587768503	0.4749669237726971	-0.027893263412748115	-0.07720807933116414	0.5053280385789126	-0.024615576460799038	-0.1044042282465667	0.5224001054438335	-0.022467953971350818	-0.11005509106586131	0.5309852331795362	-0.003550629895607782	-0.1242127838360475	0.4926109932127961	0.014701667492006854	-0.12140076657985355	0.5044818068828772	-0.02067510032483111	-0.08861380258239726	0.5221846532121854	-0.018110460718088972	-0.09144785542742928	0.5375752068238369	0.003084739272496695	-0.1042268971319531	0.5000650054563197	0.027352915038213577	-0.10379289324649332	0.5046818264462154	-0.00769921780726901	-0.0774387907114702	0.5226034894153361	-0.0057565969925681415	-0.07763934193071464	0.5379220123870702	0.012581322065892964	-0.08465671733536462	0.5051328785056582	0.03623704207099854	-0.0846356377978914	0.5076835766765473	-0.007988215116161657	-0.06385659137343314	0.5244929845023671	-0.005182065339911612	-0.06225367778296209	0.5345957884691896	0.013123771281053631	-0.06416200600800281	0.506242187591588	0.035371213237992694	-0.06274493344588794	0.4622830810018609	-0.023011742144276925	-0.051989820119430985
35	1.1999999999999948	0.5048397852496128	0.0003596593627795408	-0.16477815737522072	0.49544361284842875	-0.005370333203975952	-0.14460691226263167	0.4804735444890693	-0.018335322601433113	-0.12059387198781557	0.4747686924475759	-0.027672187652342584	-0.07734843738246366	0.506020870605435	-0.02481968258371714	-0.10460453619746823	0.522917581254814	-0.022170130504272967	-0.11056113279363555	0.530847458056055	-0.0029842316626095267	-0.12473957320697437	0.4922597305219416	0.014744853613607167	-0.1215297580998892	0.5050874235068897	-0.020758182131659253	-0.08874638591213735	0.5227031327892229	-0.017947978569566758	-0.09187521035910196	0.5374911280312418	0.003604020030402777	-0.10476846840619547	0.4997287883793714	0.02746703503978276	-0.10392577054878116	0.504958690159189	-0.00790343818575534	-0.07749240034883942	0.522834499602197	-0.005613730892066848	-0.07795356980413848	0.537927958785653	0.012871436492600252	-0.0850715790509845	0.5049590094394648	0.0362742768784276	-0.0847953999714629	0.5079599605835451	-0.008079251230426188	-0.06397983822347209	0.5247738513128413	-0.005153841461077779	-0.06266262289381264	0.5346270442835312	0.013289899573420194	-0.06454810000444589	0.506172557273833	0.03539290919516802	-0.06291023991401268	0.4622830810018609	-0.023011742144276925	-0.051989820119430985
36	1.233333333333328	0.5040975468677351	0.0006138747349357931	-0.16496583655779407	0.49482682693969593	-0.005132925467835392	-0.14474139492284932	0.48001103817317103	-0.018155517798911225	-0.12066392636395962	0.47471251939260517	-0.02759746183521139	-0.07738962230777213	0.5074688430265699	-0.025149710061376562	-0.1049904018654998	0.5239931191077105	-0.02156983281309177	-0.11148137859334728	0.5307142767742332	-0.0018786776516131476	-0.12559145587975207	0.49178080268409186	0.014920117817964318	-0.12163909455472255	0.5066597045524918	-0.02143884670511731	-0.08903282032926096	0.5240089465524191	-0.017749559126838177	-0.09269245954545557	0.5374848852023804	0.004582295569198036	-0.10569618567828443	0.49926684515753483	0.027666082693001637	-0.1040627512126544	0.506058366367065	-0.008484853107149082	-0.07767902043561625	0.5237990001262348	-0.005412946170748056	-0.07859187398197731	0.5381293166647144	0.013627325302169035	-0.0858230612388945	0.504700650144196	0.03635487183592018	-0.0849841826921719	0.5086461487210224	-0.008477657957191576	-0.06440410566182286	0.5253919663560389	-0.005110583259251511	-0.06329037332716558	0.5346899289991931	0.013623378397253305	-0.06513389993101848	0.5060408668726869	0.03544537598858677	-0.06315523588792593	0.4622830810018608	-0.023011742144276925	-0.051989820119430985
